# xmcd
#
# Track frame offsets:
#	150
#	15035
#	40178
#	58648
#	80115
#	91159
#	115177
#	147520
#	169434
#
# Disc length: 2460 seconds
#
# Revision: 7
# Processed by: cddbd v1.5.2PL0 Copyright (c) Steve Scherf et al.
# Submitted via: Jack! The Knife 20 Magnifico
#
DISCID=6f099a09
DTITLE=Necrodeath - The 7 Deadly Sins
DYEAR=2014
DGENRE=Heavy Metal
TTITLE0=Sloth
TTITLE1=Lust
TTITLE2=Envy
TTITLE3=Pride
TTITLE4=Wrath
TTITLE5=Gluttony
TTITLE6=Greed
TTITLE7=Thanatoid
TTITLE8=Graveyard Of The Innocents
EXTD=
EXTT0=
EXTT1=
EXTT2=
EXTT3=
EXTT4=
EXTT5=
EXTT6=
EXTT7=
EXTT8=
PLAYORDER=
